<svg viewBox="0 0 330 200" xmlns="http://www.w3.org/2000/svg"><g><g><g><g><g><line x1="40" y1="172.37997257992168" x2="35" y2="172.37997257992168" style="visibility: inherit;" fill="rgb(0, 0, 0)" stroke="rgb(204, 204, 204)" stroke-width="1px"></line><line x1="40" y1="156.00030157760332" x2="35" y2="156.00030157760332" style="visibility: inherit;" fill="rgb(0, 0, 0)" stroke="rgb(204, 204, 204)" stroke-width="1px"></line><line x1="40" y1="139.62063057528493" x2="35" y2="139.62063057528493" style="visibility: inherit;" fill="rgb(0, 0, 0)" stroke="rgb(204, 204, 204)" stroke-width="1px"></line><line x1="40" y1="123.24095957296656" x2="35" y2="123.24095957296656" style="visibility: inherit;" fill="rgb(0, 0, 0)" stroke="rgb(204, 204, 204)" stroke-width="1px"></line><line x1="40" y1="106.86128857064817" x2="35" y2="106.86128857064817" style="visibility: inherit;" fill="rgb(0, 0, 0)" stroke="rgb(204, 204, 204)" stroke-width="1px"></line><line x1="40" y1="90.4816175683298" x2="35" y2="90.4816175683298" style="visibility: inherit;" fill="rgb(0, 0, 0)" stroke="rgb(204, 204, 204)" stroke-width="1px"></line><line x1="40" y1="74.10194656601142" x2="35" y2="74.10194656601142" style="visibility: inherit;" fill="rgb(0, 0, 0)" stroke="rgb(204, 204, 204)" stroke-width="1px"></line><line x1="40" y1="57.722275563693046" x2="35" y2="57.722275563693046" style="visibility: inherit;" fill="rgb(0, 0, 0)" stroke="rgb(204, 204, 204)" stroke-width="1px"></line><line x1="40" y1="41.342604561374685" x2="35" y2="41.342604561374685" style="visibility: inherit;" fill="rgb(0, 0, 0)" stroke="rgb(204, 204, 204)" stroke-width="1px"></line><line x1="40" y1="24.962933559056296" x2="35" y2="24.962933559056296" style="visibility: inherit;" fill="rgb(0, 0, 0)" stroke="rgb(204, 204, 204)" stroke-width="1px"></line><line x1="40" y1="8.583262556737907" x2="35" y2="8.583262556737907" style="visibility: inherit;" fill="rgb(0, 0, 0)" stroke="rgb(204, 204, 204)" stroke-width="1px"></line></g><g transform="translate(30, 0)"><text x="0" y="172.37997257992168" dx="0em" dy="0.3em" style="text-anchor: end; visibility: inherit; font-family: &quot;Helvetica Neue&quot;, sans-serif; font-size: 12px; font-weight: 200;" fill="rgb(50, 49, 63)" stroke="none" stroke-width="1px">0</text><text x="0" y="156.00030157760332" dx="0em" dy="0.3em" style="text-anchor: end; visibility: hidden; font-family: &quot;Helvetica Neue&quot;, sans-serif; font-size: 12px; font-weight: 200;" fill="rgb(50, 49, 63)" stroke="none" stroke-width="1px">10</text><text x="0" y="139.62063057528493" dx="0em" dy="0.3em" style="text-anchor: end; visibility: inherit; font-family: &quot;Helvetica Neue&quot;, sans-serif; font-size: 12px; font-weight: 200;" fill="rgb(50, 49, 63)" stroke="none" stroke-width="1px">20</text><text x="0" y="123.24095957296656" dx="0em" dy="0.3em" style="text-anchor: end; visibility: hidden; font-family: &quot;Helvetica Neue&quot;, sans-serif; font-size: 12px; font-weight: 200;" fill="rgb(50, 49, 63)" stroke="none" stroke-width="1px">30</text><text x="0" y="106.86128857064817" dx="0em" dy="0.3em" style="text-anchor: end; visibility: inherit; font-family: &quot;Helvetica Neue&quot;, sans-serif; font-size: 12px; font-weight: 200;" fill="rgb(50, 49, 63)" stroke="none" stroke-width="1px">40</text><text x="0" y="90.4816175683298" dx="0em" dy="0.3em" style="text-anchor: end; visibility: hidden; font-family: &quot;Helvetica Neue&quot;, sans-serif; font-size: 12px; font-weight: 200;" fill="rgb(50, 49, 63)" stroke="none" stroke-width="1px">50</text><text x="0" y="74.10194656601142" dx="0em" dy="0.3em" style="text-anchor: end; visibility: inherit; font-family: &quot;Helvetica Neue&quot;, sans-serif; font-size: 12px; font-weight: 200;" fill="rgb(50, 49, 63)" stroke="none" stroke-width="1px">60</text><text x="0" y="57.722275563693046" dx="0em" dy="0.3em" style="text-anchor: end; visibility: hidden; font-family: &quot;Helvetica Neue&quot;, sans-serif; font-size: 12px; font-weight: 200;" fill="rgb(50, 49, 63)" stroke="none" stroke-width="1px">70</text><text x="0" y="41.342604561374685" dx="0em" dy="0.3em" style="text-anchor: end; visibility: inherit; font-family: &quot;Helvetica Neue&quot;, sans-serif; font-size: 12px; font-weight: 200;" fill="rgb(50, 49, 63)" stroke="none" stroke-width="1px">80</text><text x="0" y="24.962933559056296" dx="0em" dy="0.3em" style="text-anchor: end; visibility: hidden; font-family: &quot;Helvetica Neue&quot;, sans-serif; font-size: 12px; font-weight: 200;" fill="rgb(50, 49, 63)" stroke="none" stroke-width="1px">90</text><text x="0" y="8.583262556737907" dx="0em" dy="0.3em" style="text-anchor: end; visibility: inherit; font-family: &quot;Helvetica Neue&quot;, sans-serif; font-size: 12px; font-weight: 200;" fill="rgb(50, 49, 63)" stroke="none" stroke-width="1px">100</text></g><line x1="40" y1="0" x2="40" y2="178" fill="rgb(0, 0, 0)" stroke="rgb(204, 204, 204)" stroke-width="1px"></line></g></g><g transform="translate(40, 0)" clip-path="url(#clip_0)"><clipPath id="clip_0"><rect width="290" height="178"></rect></clipPath><g><g><g><line x1="9.15279175996523" y1="0" x2="9.15279175996523" y2="178" fill="rgb(0, 0, 0)" stroke="rgb(60, 60, 60)" stroke-width="1px" opacity="0.25"></line><line x1="45.492559966225656" y1="0" x2="45.492559966225656" y2="178" fill="rgb(0, 0, 0)" stroke="rgb(60, 60, 60)" stroke-width="1px" opacity="0.25"></line><line x1="81.8323281724861" y1="0" x2="81.8323281724861" y2="178" fill="rgb(0, 0, 0)" stroke="rgb(60, 60, 60)" stroke-width="1px" opacity="0.25"></line><line x1="118.17209637874652" y1="0" x2="118.17209637874652" y2="178" fill="rgb(0, 0, 0)" stroke="rgb(60, 60, 60)" stroke-width="1px" opacity="0.25"></line><line x1="154.51186458500695" y1="0" x2="154.51186458500695" y2="178" fill="rgb(0, 0, 0)" stroke="rgb(60, 60, 60)" stroke-width="1px" opacity="0.25"></line><line x1="190.85163279126735" y1="0" x2="190.85163279126735" y2="178" fill="rgb(0, 0, 0)" stroke="rgb(60, 60, 60)" stroke-width="1px" opacity="0.25"></line><line x1="227.1914009975278" y1="0" x2="227.1914009975278" y2="178" fill="rgb(0, 0, 0)" stroke="rgb(60, 60, 60)" stroke-width="1px" opacity="0.25"></line><line x1="263.53116920378824" y1="0" x2="263.53116920378824" y2="178" fill="rgb(0, 0, 0)" stroke="rgb(60, 60, 60)" stroke-width="1px" opacity="0.25"></line></g><g><line x1="0" y1="172.37997257992168" x2="290" y2="172.37997257992168" fill="rgb(0, 0, 0)" stroke="rgb(60, 60, 60)" stroke-width="1px" opacity="0.25"></line><line x1="0" y1="156.00030157760332" x2="290" y2="156.00030157760332" fill="rgb(0, 0, 0)" stroke="rgb(60, 60, 60)" stroke-width="1px" opacity="0.25"></line><line x1="0" y1="139.62063057528493" x2="290" y2="139.62063057528493" fill="rgb(0, 0, 0)" stroke="rgb(60, 60, 60)" stroke-width="1px" opacity="0.25"></line><line x1="0" y1="123.24095957296656" x2="290" y2="123.24095957296656" fill="rgb(0, 0, 0)" stroke="rgb(60, 60, 60)" stroke-width="1px" opacity="0.25"></line><line x1="0" y1="106.86128857064817" x2="290" y2="106.86128857064817" fill="rgb(0, 0, 0)" stroke="rgb(60, 60, 60)" stroke-width="1px" opacity="0.25"></line><line x1="0" y1="90.4816175683298" x2="290" y2="90.4816175683298" fill="rgb(0, 0, 0)" stroke="rgb(60, 60, 60)" stroke-width="1px" opacity="0.25"></line><line x1="0" y1="74.10194656601142" x2="290" y2="74.10194656601142" fill="rgb(0, 0, 0)" stroke="rgb(60, 60, 60)" stroke-width="1px" opacity="0.25"></line><line x1="0" y1="57.722275563693046" x2="290" y2="57.722275563693046" fill="rgb(0, 0, 0)" stroke="rgb(60, 60, 60)" stroke-width="1px" opacity="0.25"></line><line x1="0" y1="41.342604561374685" x2="290" y2="41.342604561374685" fill="rgb(0, 0, 0)" stroke="rgb(60, 60, 60)" stroke-width="1px" opacity="0.25"></line><line x1="0" y1="24.962933559056296" x2="290" y2="24.962933559056296" fill="rgb(0, 0, 0)" stroke="rgb(60, 60, 60)" stroke-width="1px" opacity="0.25"></line><line x1="0" y1="8.583262556737907" x2="290" y2="8.583262556737907" fill="rgb(0, 0, 0)" stroke="rgb(60, 60, 60)" stroke-width="1px" opacity="0.25"></line></g></g></g><g><g><line x1="0" y1="172.37997257992168" x2="290" y2="172.37997257992168" fill="rgb(0, 0, 0)" stroke="rgb(153, 153, 153)" stroke-width="1.5px"></line></g></g><g><g><line x1="9.15279175996523" y1="0" x2="9.15279175996523" y2="178" fill="rgb(0, 0, 0)" stroke="rgb(153, 153, 153)" stroke-width="1.5px"></line></g></g><g><g><g><g><g><path stroke="rgb(0, 119, 187)" stroke-width="2px" d="M9.15279175996523,118.21611884255067L9.879587124090442,116.91097003147993L10.60638248821565,115.60581497206059L11.333177852340858,119.9563214228774L12.059973216466066,119.30375014151633L12.786768580591275,114.73571368189724L13.513563944716482,115.38829121160691L14.240359308841692,115.60581497206059L14.967154672966899,117.78107132164331L15.69395003709211,93.20068644322103L16.420745401217317,115.60581497206059L17.147540765342526,107.33984334298573L17.874336129467736,115.38829121160691L18.601131493592945,117.78107132164331L19.327926857718154,82.97698847336578L20.054722221843363,73.40586803322017L20.78151758596857,71.88318921334715L21.508312950093778,117.56354131284101L22.235108314218987,80.1491545940734L22.961903678344196,79.4965770643637L23.688699042469402,60.789389953328524L24.41549440659461,58.61412735539719L25.14228977071982,66.00999769430868L25.86908513484503,52.740942084707356L26.595880498970235,56.22134724536079L27.322675863095444,76.66874943341995L28.049471227220653,62.96464005456262L28.776266591345863,71.44813544409115L29.50306195547107,57.09145478387276L30.22985731959628,55.78629972445343L30.95665268372149,65.57495017340132L31.6834480478467,68.1852540438914L32.410243411971905,46.650226805215226L33.137038776097114,67.7502002746354L33.86383414022232,86.23986987356552L34.59062950434753,68.40277780434509L35.317424868472735,62.312062524852934L36.04422023259795,51.43578702528799L36.77101559672316,47.30280433492487L37.49781096084836,50.56569198347324L38.22460632497357,49.91311445376357L38.95140168909878,53.17598960561472L39.67819705322399,47.5203343437272L40.4049924173492,64.26979511398196L41.13178778147441,46.21517928430782L41.85858314559962,45.56260175459815L42.585378509724826,54.91619218594144L43.31217387385003,39.254356466303705L44.03896923797524,49.91311445376357L44.76576460210045,37.949201406884356L45.492559966225656,58.179079834489826L46.219355330350865,54.91619218594144L46.94615069447608,39.471886475106004L47.67294605860129,42.29971410604978L48.3997414227265,49.69558444496127L49.12653678685171,39.6894164839083L49.85333215097692,46.21517928430782L50.58012751510213,38.60177893659403L51.306922879227336,42.29971410604978L52.033718243352546,42.08219659394473L52.76051360747775,49.043006915251596L53.48730897160296,46.21517928430782L54.214104335728166,47.73785185583225L54.940899699853375,46.21517928430782L55.667695063978584,36.64405884416226L56.39449042810379,32.07601613619451L57.121285792229,53.61104962321933L57.84808115635421,60.13681242361885L58.57487652047942,57.74403231358245L59.30167188460462,65.79246768550637L60.02846724872983,61.2244374742359L60.75526261285504,78.19142825329298L61.48205797698025,63.6172175842723L62.20885334110546,53.61104962321933L62.93564870523067,49.47805443615897L63.66244406935588,44.910024224888474L64.3892394334811,49.91311445376357L65.11603479760629,42.08219659394473L65.8428301617315,42.95229163575945L66.56962552585671,34.033748725323534L67.29642088998192,47.5203343437272L68.02321625410713,55.78629972445343L68.75001161823234,47.5203343437272L69.47680698235754,41.42961906423503L70.20360234648275,47.5203343437272L70.93039771060796,48.17289937673962L71.65719307473317,44.910024224888474L72.38398843885838,44.0399166863765L73.11078380298359,106.46974205282237L73.8375791671088,105.38211700220532L74.564374531234,117.56354131284101L75.2911698953592,72.9708142639642L76.01796525948441,57.30897229597784L76.74476062360962,56.87392477507046L77.47155598773483,53.828567135324406L78.19835135186004,59.701752406014236L78.92514671598525,47.955381864634546L79.65194208011046,53.828567135324406L80.37873744423567,42.29971410604978L81.10553280836089,47.30280433492487L81.8323281724861,52.52341207590504L82.55912353661131,36.20899882655763L83.28591890073652,42.73476162695715L84.01271426486173,49.043006915251596L84.73950962898694,48.39042938554192L85.46630499311215,44.0399166863765L86.19310035723734,63.6172175842723L86.91989572136255,36.64405884416226L87.64669108548776,45.99764927550552L88.37348644961297,38.60177893659403L89.10028181373818,34.033748725323534L89.82707717786339,64.70484263488935L90.5538725419886,86.8924474032752L91.2806679061138,48.60795939434422L92.00746327023901,41.42961906423503L92.73425863436422,44.910024224888474L93.46105399848943,78.40895201374667L94.18784936261464,42.29971410604978L94.91464472673985,46.21517928430782L95.64144009086506,47.955381864634546L96.36823545499027,99.94397925242285L97.09503081911548,56.003829733255714L97.82182618324069,57.52650230478015L98.54862154736588,45.56260175459815L99.27541691149109,46.21517928430782L100.0022122756163,58.831657364199486L100.72900763974151,37.29662387717468L101.45580300386672,62.09453251605062L102.18259836799193,37.29662387717468L102.90939373211714,46.4326967964129L103.63618909624235,49.043006915251596L104.36298446036756,113.21303486202419L105.08977982449277,93.20068644322103L105.81657518861797,57.96154982568751L106.54337055274318,56.003829733255714L107.2701659168684,43.604869165469125L107.9969612809936,50.78320949557832L108.72375664511881,42.08219659394473L109.45055200924402,42.95229163575945L110.17734737336923,50.78320949557832L110.90414273749442,116.25839250177027L111.63093810161963,116.69344002267763L112.35773346574484,78.19142825329298L113.08452882987005,52.52341207590504L113.81132419399526,46.4326967964129L114.53811955812047,45.56260175459815L115.26491492224568,46.650226805215226L115.99171028637089,47.955381864634546L116.7185056504961,41.8646665851424L117.44530101462131,41.6471365763401L118.17209637874652,60.35432993572391L118.89889174287173,45.56260175459815L119.62568710699693,46.8677568140175L120.35248247112214,46.8677568140175L121.07927783524735,45.56260175459815L121.80607319937256,48.60795939434422L122.53286856349776,53.17598960561472L123.25966392762297,36.64405884416226L123.98645929174818,54.69867467383638L124.71325465587338,55.56876971565113L125.4400500199986,43.82239917427145L126.1668453841238,42.95229163575945L126.89364074824901,51.65331703409029L127.62043611237422,67.7502002746354L128.34723147649945,44.0399166863765L129.07402684062464,44.0399166863765L129.80082220474986,63.6172175842723L130.52761756887506,46.21517928430782L131.25441293300028,44.0399166863765L131.98120829712548,68.1852540438914L132.7080036612507,40.99455904663043L133.4347990253759,45.12755423369077L134.16159438950112,38.81930894539633L134.8883897536263,38.166731415686655L135.6151851177515,38.81930894539633L136.34198048187673,45.780119266703224L137.06877584600193,42.08219659394473L137.79557121012715,35.77395130565026L138.52236657425235,101.0316043030399L139.24916193837757,37.079106365069606L139.97595730250276,40.341981516920754L140.702752666628,34.903843767138284L141.42954803075318,36.86157635626731L142.1563433948784,66.88010523282068L142.8831387590036,48.60795939434422L143.60993412312882,39.03683895419863L144.33672948725402,38.38426142448898L145.06352485137924,115.82333873251427L145.79032021550444,118.86869637226036L146.51711557962966,116.91097003147993L147.24391094375486,104.72953947249566L147.97070630788008,109.08004592331245L148.69750167200527,86.23986987356552L149.4242970361305,62.52959253365523L150.1510924002557,51.87083454619538L150.87788776438092,40.55951152572305L151.6046831285061,39.471886475106004L152.33147849263133,59.0491873730018L153.05827385675653,96.68109160387448L153.78506922088172,108.64499840240508L154.51186458500695,83.41203599427314L155.23865994913214,66.44504521521607L155.96545531325737,65.57495017340132L156.69225067738256,49.69558444496127L157.41904604150778,69.70793286376443L158.14584140563298,44.910024224888474L158.8726367697582,52.08836455499768L159.5994321338834,51.21825701648568L160.32622749800862,53.17598960561472L161.05302286213382,41.8646665851424L161.77981822625904,44.2574466951788L162.50661359038423,45.780119266703224L163.23340895450946,47.73785185583225L163.96020431863465,41.212089055432756L164.68699968275985,47.08527432612257L165.41379504688507,39.6894164839083L166.14059041101027,99.72644924362055L166.8673857751355,63.39968757546998L167.59418113926068,48.825476906449296L168.3209765033859,59.484234893909175L169.0477718675111,47.955381864634546L169.77456723163633,46.21517928430782L170.50136259576152,47.5203343437272L171.22815795988674,51.21825701648568L171.95495332401194,46.4326967964129L172.68174868813716,86.23986987356552L173.40854405226236,58.831657364199486L174.13533941638758,50.56569198347324L174.86213478051278,51.43578702528799L175.588930144638,66.66257522401837L176.3157255087632,47.5203343437272L177.0425208728884,69.05535533405475L177.7693162370136,45.780119266703224L178.4961116011388,49.69558444496127L179.22290696526403,38.60177893659403L179.94970232938923,40.55951152572305L180.67649769351445,45.99764927550552L181.40329305763964,48.60795939434422L182.13008842176487,50.34816197467096L182.85688378589006,39.90693399601338L183.58367915001529,38.81930894539633L184.31047451414048,39.03683895419863L185.0372698782657,49.26053692405392L185.7640652423909,56.65639476626815L186.49086060651612,45.12755423369077L187.21765597064132,46.8677568140175L187.94445133476654,42.29971410604978L188.67124669889174,69.92545662421811L189.39804206301693,49.91311445376357L190.12483742714215,60.13681242361885L190.85163279126735,39.471886475106004L191.57842815539257,40.77704153452535L192.30522351951777,37.29662387717468L193.032018883643,41.42961906423503L193.75881424776819,57.74403231358245L194.4856096118934,49.47805443615897L195.2124049760186,42.95229163575945L195.93920034014386,40.77704153452535L196.66599570426902,57.52650230478015L197.39279106839427,50.78320949557832L198.11958643251944,66.22752770311098L198.8463817966447,57.09145478387276L199.5731771607699,55.78629972445343L200.2999725248951,68.1852540438914L201.0267678890203,55.13372219474374L201.75356325314547,46.4326967964129L202.48035861727072,58.831657364199486L203.2071539813959,43.16982164456175L203.93394934552114,52.958472093509656L204.66074470964634,37.51415388597701L205.38754007377156,41.212089055432756L206.11433543789676,48.60795939434422L206.84113080202198,56.003829733255714L207.56792616614717,39.254356466303705L208.2947215302724,55.56876971565113L209.0215168943976,46.4326967964129L209.74831225852282,45.34507174579585L210.475107622648,33.38117119561386L211.20190298677323,39.6894164839083L211.92869835089843,45.56260175459815L212.65549371502365,39.471886475106004L213.38228907914885,48.60795939434422L214.10908444327404,111.90787980260484L214.83587980739927,99.94397925242285L215.56267517152446,75.58111813445429L216.28947053564968,58.61412735539719L217.01626589977488,49.47805443615897L217.7430612639001,48.60795939434422L218.4698566280253,54.046097144126705L219.19665199215052,45.12755423369077L219.92344735627572,43.82239917427145L220.65024272040094,49.69558444496127L221.37703808452613,59.0491873730018L222.10383344865136,47.5203343437272L222.83062881277655,68.40277780434509L223.55742417690178,52.52341207590504L224.28421954102697,49.91311445376357L225.0110149051522,48.17289937673962L225.7378102692774,47.955381864634546L226.46460563340258,42.29971410604978L227.1914009975278,40.99455904663043L227.918196361653,41.6471365763401L228.64499172577823,42.73476162695715L229.37178708990342,46.4326967964129L230.09858245402864,57.09145478387276L230.82537781815384,42.73476162695715L231.55217318227906,45.780119266703224L232.27896854640426,54.263614656231766L233.00576391052948,47.5203343437272L233.73255927465468,38.38426142448898L234.4593546387799,43.82239917427145L235.1861500029051,50.13063196586866L235.91294536703032,42.95229163575945L236.6397407311555,50.78320949557832L237.3665360952807,46.4326967964129L238.09333145940593,54.263614656231766L238.82012682353113,48.60795939434422L239.54692218765635,43.604869165469125L240.27371755178154,39.03683895419863L241.00051291590677,54.481144665034066L241.72730828003196,53.828567135324406L242.4541036441572,66.22752770311098L243.18089900828238,48.17289937673962L243.9076943724076,117.99859508209698L244.6344897365328,118.21611884255067L245.36128510065802,115.82333873251427L246.08808046478322,119.9563214228774L246.81487582890844,117.12849379193364L247.54167119303364,118.65117261180666L248.26846655715886,117.78107132164331L248.99526192128405,117.78107132164331L249.72205728540925,117.78107132164331L250.44885264953447,117.78107132164331L251.17564801365967,117.78107132164331L251.9024433777849,117.78107132164331L252.6292387419101,117.78107132164331L253.3560341060353,117.78107132164331L254.0828294701605,117.78107132164331L254.80962483428573,117.78107132164331L255.53642019841092,117.78107132164331L256.2632155625362,117.78107132164331L256.99001092666134,117.78107132164331L257.71680629078656,117.78107132164331L258.4436016549118,117.78107132164331" style="fill: none;" fill="none"></path></g></g></g></g></g></g><g transform="translate(40, 178)" clip-path="url(#clip_1)"><clipPath id="clip_1"><rect width="290" height="22"></rect></clipPath><g><g><line x1="9.15279175996523" y1="0" x2="9.15279175996523" y2="5" style="visibility: inherit;" fill="rgb(0, 0, 0)" stroke="rgb(204, 204, 204)" stroke-width="1px"></line><line x1="45.492559966225656" y1="0" x2="45.492559966225656" y2="5" style="visibility: inherit;" fill="rgb(0, 0, 0)" stroke="rgb(204, 204, 204)" stroke-width="1px"></line><line x1="81.8323281724861" y1="0" x2="81.8323281724861" y2="5" style="visibility: inherit;" fill="rgb(0, 0, 0)" stroke="rgb(204, 204, 204)" stroke-width="1px"></line><line x1="118.17209637874652" y1="0" x2="118.17209637874652" y2="5" style="visibility: inherit;" fill="rgb(0, 0, 0)" stroke="rgb(204, 204, 204)" stroke-width="1px"></line><line x1="154.51186458500695" y1="0" x2="154.51186458500695" y2="5" style="visibility: inherit;" fill="rgb(0, 0, 0)" stroke="rgb(204, 204, 204)" stroke-width="1px"></line><line x1="190.85163279126735" y1="0" x2="190.85163279126735" y2="5" style="visibility: inherit;" fill="rgb(0, 0, 0)" stroke="rgb(204, 204, 204)" stroke-width="1px"></line><line x1="227.1914009975278" y1="0" x2="227.1914009975278" y2="5" style="visibility: inherit;" fill="rgb(0, 0, 0)" stroke="rgb(204, 204, 204)" stroke-width="1px"></line><line x1="263.53116920378824" y1="0" x2="263.53116920378824" y2="5" style="visibility: inherit;" fill="rgb(0, 0, 0)" stroke="rgb(204, 204, 204)" stroke-width="1px"></line></g><g transform="translate(0, 8)"><text x="9.15279175996523" y="0" dx="0em" dy="0.95em" style="text-anchor: middle; visibility: inherit; font-family: &quot;Helvetica Neue&quot;, sans-serif; font-size: 12px; font-weight: 200;" fill="rgb(50, 49, 63)" stroke="none" stroke-width="1px">0</text><text x="45.492559966225656" y="0" dx="0em" dy="0.95em" style="text-anchor: middle; visibility: inherit; font-family: &quot;Helvetica Neue&quot;, sans-serif; font-size: 12px; font-weight: 200;" fill="rgb(50, 49, 63)" stroke="none" stroke-width="1px">50</text><text x="81.8323281724861" y="0" dx="0em" dy="0.95em" style="text-anchor: middle; visibility: inherit; font-family: &quot;Helvetica Neue&quot;, sans-serif; font-size: 12px; font-weight: 200;" fill="rgb(50, 49, 63)" stroke="none" stroke-width="1px">100</text><text x="118.17209637874652" y="0" dx="0em" dy="0.95em" style="text-anchor: middle; visibility: inherit; font-family: &quot;Helvetica Neue&quot;, sans-serif; font-size: 12px; font-weight: 200;" fill="rgb(50, 49, 63)" stroke="none" stroke-width="1px">150</text><text x="154.51186458500695" y="0" dx="0em" dy="0.95em" style="text-anchor: middle; visibility: inherit; font-family: &quot;Helvetica Neue&quot;, sans-serif; font-size: 12px; font-weight: 200;" fill="rgb(50, 49, 63)" stroke="none" stroke-width="1px">200</text><text x="190.85163279126735" y="0" dx="0em" dy="0.95em" style="text-anchor: middle; visibility: inherit; font-family: &quot;Helvetica Neue&quot;, sans-serif; font-size: 12px; font-weight: 200;" fill="rgb(50, 49, 63)" stroke="none" stroke-width="1px">250</text><text x="227.1914009975278" y="0" dx="0em" dy="0.95em" style="text-anchor: middle; visibility: inherit; font-family: &quot;Helvetica Neue&quot;, sans-serif; font-size: 12px; font-weight: 200;" fill="rgb(50, 49, 63)" stroke="none" stroke-width="1px">300</text><text x="263.53116920378824" y="0" dx="0em" dy="0.95em" style="text-anchor: middle; visibility: inherit; font-family: &quot;Helvetica Neue&quot;, sans-serif; font-size: 12px; font-weight: 200;" fill="rgb(50, 49, 63)" stroke="none" stroke-width="1px">350</text></g><line x1="0" y1="0" x2="290" y2="0" fill="rgb(0, 0, 0)" stroke="rgb(204, 204, 204)" stroke-width="1px"></line></g></g></g></g></svg>